<svg width="368" height="186" viewBox="0 0 368 186" fill="none" xmlns="http://www.w3.org/2000/svg">
<path d="M20.0002 91.9214C20.168 90.8654 20.2491 89.6528 20.2491 88.2851C20.2491 86.9173 20.168 85.7048 20.0002 84.6488C19.8285 83.5677 19.4845 82.6143 18.9585 81.7974L18.9504 81.7849L18.9416 81.7728C17.7773 80.1817 15.6354 79.471 12.728 79.471H8.44939H7.94939V79.971V79.9732V96.5992V97.0992H8.44939H13.1309C14.6176 97.0992 15.8507 96.9077 16.8003 96.4959L16.8008 96.4957C17.7363 96.0889 18.4878 95.4968 19.0297 94.7117L19.0369 94.7013L19.0435 94.6906C19.5178 93.9232 19.8301 92.9947 20.0002 91.9214ZM20.0002 91.9214L19.5064 91.8429M20.0002 91.9214C20.0002 91.9213 20.0003 91.9213 20.0003 91.9212L19.5064 91.8429M19.5064 91.8429C19.3439 92.8685 19.0493 93.7301 18.6182 94.4277C18.1352 95.1275 17.4614 95.6632 16.6014 96.0372C15.7391 96.4111 14.5822 96.5992 13.1309 96.5992H8.94939H8.44939V96.0992V80.471V79.9732V79.971H8.94939H12.728C15.5789 79.971 17.5155 80.6707 18.5381 82.0681C19.0211 82.8182 19.3439 83.7038 19.5064 84.7272C19.669 85.7506 19.7491 86.9358 19.7491 88.2851C19.7491 89.6343 19.669 90.8195 19.5064 91.8429ZM7.94704 103.341V125.61H0.717285V73.2831H13.4513C18.206 73.2831 21.6828 74.5623 23.9787 77.0364C26.2811 79.5176 27.4765 83.2865 27.4765 88.436C27.4765 91.5268 26.9599 94.1212 25.9514 96.2352C24.9598 98.3136 23.2059 100.013 20.6474 101.324L20.2543 101.525L20.4056 101.94L29.0361 125.61H21.3947L13.8427 103.181L13.7281 102.841H13.3689H8.44704H7.94704V103.341Z" fill="#25B0DC" stroke="black"/>
<path d="M65.3453 114.548L65.2615 114.151H64.8561H53.6388H53.2334L53.1496 114.548L50.8137 125.61H43.6216L56.2122 73.2831H62.2827L74.871 125.61H67.6812L65.3453 114.548ZM63.3223 107.961H63.9374L63.8117 107.359L59.7782 88.0364L59.6951 87.6386H59.2887H59.1261H58.7197L58.6367 88.0364L54.6031 107.359L54.4774 107.961H55.0925H63.3223Z" fill="#25B0DC" stroke="black"/>
<path d="M92.3872 125.61V73.2831H99.6193V125.61H92.3872Z" fill="#25B0DC" stroke="black"/>
<path d="M140.882 104.913V73.2831H148.112V125.61H141.206L128.742 93.871L128.617 93.5538H128.277H128.116H127.616V94.0538V125.61H120.387V73.2831H127.451L139.753 105.094L139.877 105.413H140.22H140.382H140.882V104.913Z" fill="#25B0DC" stroke="black"/>
<path d="M183.538 103.566V125.61H176.308V103.566V103.477L176.277 103.394L165.227 73.2831H172.858L179.364 94.1284L179.474 94.4794H179.842H180.004H180.372L180.482 94.1284L186.988 73.2831H194.619L183.568 103.394L183.538 103.477V103.566Z" fill="#25B0DC" stroke="black"/>
<path d="M219.786 79.4732H219.286V79.9732V118.92V119.42H219.786H223.58C225.952 119.42 227.765 118.873 228.873 117.645C229.961 116.439 230.455 114.607 230.455 112.254V86.5641C230.455 84.4012 229.984 82.6525 228.975 81.3849L228.975 81.3844C227.916 80.0583 226.057 79.4732 223.58 79.4732H219.786ZM233.933 122.182L234.269 122.552L233.933 122.182C231.445 124.443 227.832 125.61 223.012 125.61H212.054V73.2831H223.74C228.393 73.2831 231.838 74.4604 234.162 76.7354C236.489 79.0133 237.683 82.2653 237.683 86.5641V111.504C237.683 116.416 236.399 119.94 233.933 122.182Z" fill="#25B0DC" stroke="black"/>
<path d="M275.712 114.548L275.628 114.151H275.222H264.005H263.6L263.516 114.548L261.18 125.61H253.988L266.579 73.2831H272.649L285.24 125.61H278.048L275.712 114.548ZM273.689 107.961H274.304L274.178 107.359L270.144 88.0364L270.061 87.6386H269.655H269.495H269.088L269.005 88.0364L264.972 107.359L264.846 107.961H265.461H273.689Z" fill="#25B0DC" stroke="black"/>
<g filter="url(#filter0_d_151_48)">
<path d="M305.241 126.11V103.566L293.944 72.7831H302.659L309.275 93.9794H309.435L316.051 72.7831H324.766L313.468 103.566V126.11H305.241Z" fill="#25B0DC"/>
<path d="M312.968 103.566V125.61H305.741V103.566V103.477L305.71 103.394L294.66 73.2831H302.291L308.797 94.1284L308.907 94.4794H309.275H309.435H309.803L309.912 94.1284L316.418 73.2831H324.05L312.999 103.394L312.968 103.477V103.566Z" stroke="black"/>
</g>
<path d="M350.588 80.138L350.587 80.1383C349.832 80.5704 349.21 81.1157 348.735 81.7793L348.73 81.7864L348.725 81.7937C348.255 82.5025 347.937 83.3016 347.763 84.1819C347.593 85.0388 347.511 85.9352 347.511 86.8636C347.511 87.9219 347.551 88.8171 347.634 89.5424C347.721 90.3047 347.944 90.9957 348.305 91.6102C348.673 92.2393 349.204 92.7654 349.876 93.2006C350.536 93.6286 351.422 94.0438 352.517 94.4484L352.517 94.4484L358.81 96.7708L358.81 96.7708L358.816 96.7729C360.611 97.4105 362.039 98.1492 363.115 98.9821C364.192 99.8166 365.032 100.773 365.642 101.853C366.203 102.995 366.59 104.298 366.8 105.773C367.011 107.269 367.118 108.979 367.118 110.907C367.118 113.119 366.879 115.162 366.407 117.039C365.939 118.902 365.186 120.47 364.163 121.753C363.09 123.083 361.677 124.134 359.914 124.903C358.163 125.667 356.004 126.06 353.416 126.06C351.48 126.06 349.684 125.743 348.024 125.119L348.024 125.119C346.358 124.493 344.935 123.625 343.749 122.524C342.559 121.419 341.614 120.134 340.916 118.669C340.224 117.219 339.876 115.631 339.876 113.903V111.558H347.105V113.455C347.105 114.967 347.588 116.338 348.544 117.548C349.565 118.84 351.237 119.424 353.416 119.424C354.847 119.424 356.023 119.233 356.9 118.813C357.761 118.4 358.441 117.801 358.926 117.015C359.406 116.238 359.679 115.321 359.764 114.285C359.845 113.296 359.886 112.195 359.886 110.986C359.886 109.578 359.831 108.409 359.722 107.483L359.722 107.482C359.609 106.542 359.38 105.745 359.011 105.117L359.002 105.102L358.992 105.087C358.569 104.471 358.014 103.973 357.333 103.586L357.331 103.585C356.684 103.222 355.841 102.836 354.806 102.431L354.802 102.43L348.912 100.184L348.912 100.184C345.419 98.8564 343.163 97.1319 342.032 95.0565C340.872 92.928 340.276 90.2327 340.276 86.9445C340.276 84.9979 340.563 83.153 341.139 81.4092L341.139 81.4086C341.71 79.6731 342.565 78.1898 343.697 76.9465L343.697 76.9466L343.704 76.9381C344.779 75.7025 346.157 74.7075 347.846 73.9597C349.516 73.2202 351.528 72.8413 353.896 72.8413C355.881 72.8413 357.686 73.1811 359.313 73.8511C360.955 74.5293 362.367 75.4199 363.559 76.5224C365.945 78.8357 367.113 81.4556 367.113 84.397V87.6363H359.888V86.4132C359.888 84.5773 359.421 82.9632 358.467 81.596C357.454 80.145 355.778 79.4731 353.578 79.4731C352.395 79.4731 351.385 79.6832 350.588 80.138Z" fill="#25B0DC" stroke="black"/>
<path d="M62.3588 163.231H61.8588V163.731V179.423V179.923H62.3588H64.8373H65.3373V179.423V173.798H68.6141V173.798L68.6219 173.798C70.4098 173.77 71.8412 173.216 72.8338 172.081C73.7608 171.044 74.2409 169.871 74.2409 168.574C74.2409 167.651 74.062 166.824 73.682 166.108C73.3317 165.396 72.8638 164.828 72.2732 164.423C71.6205 163.93 70.956 163.589 70.2819 163.419L70.2684 163.415L70.2548 163.413C69.6227 163.29 68.9687 163.231 68.2937 163.231H62.3588ZM70.7647 168.509C70.7647 169.014 70.5925 169.477 70.2221 169.911C69.8753 170.307 69.3373 170.546 68.5133 170.561H65.3373V166.468H68.428V166.468L68.4377 166.468C69.0327 166.456 69.528 166.584 69.9473 166.839L69.9551 166.844L69.9631 166.848C70.2189 166.991 70.4122 167.179 70.5539 167.418C70.6869 167.689 70.7647 168.044 70.7647 168.509Z" fill="#25B0DC" stroke="black"/>
<path d="M76.2242 167.751H75.7242V168.251V175.681H75.7242L75.7243 175.688C75.7423 177.066 76.2171 178.173 77.2019 178.929C78.0601 179.652 79.0386 180.033 80.1227 180.05L80.1227 180.05H80.1306C81.1051 180.05 81.9649 179.802 82.6935 179.302V179.421V179.921H83.1935H85.5331H86.0331V179.421V168.251V167.751H85.5331H83.1935H82.6935V168.251V174.91C82.6935 175.563 82.5072 176.01 82.1912 176.319L82.1911 176.319L82.1882 176.322C81.8673 176.641 81.4486 176.813 80.8893 176.813C80.3298 176.813 79.9046 176.641 79.5756 176.319L79.5727 176.316C79.2514 176.007 79.0638 175.561 79.0638 174.91V168.251V167.751H78.5638H76.2242Z" fill="#25B0DC" stroke="black"/>
<path d="M89.6731 175.656L89.3298 175.312L88.9763 175.646L87.3435 177.185L86.9437 177.562L87.3567 177.925C88.9614 179.333 90.7897 180.05 92.8204 180.05V180.05L92.8259 180.05C94.2929 180.034 95.5442 179.71 96.5453 179.04C97.5883 178.36 98.134 177.369 98.1503 176.119H98.1503V176.112C98.1503 175.09 97.8701 174.205 97.2808 173.496L97.281 173.496L97.2726 173.487C96.6099 172.73 95.5826 172.351 94.2981 172.261C94.2978 172.261 94.2976 172.261 94.2973 172.261L92.371 172.122C91.8343 172.067 91.5768 171.948 91.474 171.854L91.4569 171.838L91.4384 171.824C91.2856 171.708 91.2834 171.637 91.286 171.596L91.2871 171.58V171.564C91.2871 171.321 91.3723 171.139 91.5647 170.983L91.5648 170.983L91.5734 170.975C91.7235 170.847 92.0811 170.719 92.7898 170.719C93.3866 170.719 93.894 170.801 94.3207 170.957C94.787 171.145 95.228 171.385 95.6464 171.674L96.0095 171.924L96.3033 171.595L97.7546 169.97L98.1004 169.583L97.7007 169.252C97.0874 168.744 96.395 168.341 95.6289 168.043L95.6196 168.039L95.6102 168.036C95.2075 167.897 94.7802 167.79 94.3292 167.714L94.3293 167.714L94.3194 167.712C93.8641 167.645 93.356 167.611 92.7968 167.611C91.4766 167.611 90.3422 167.918 89.431 168.563C88.4479 169.241 87.9634 170.265 87.9476 171.549L87.9475 171.556L87.9476 171.564C87.9661 172.636 88.3346 173.522 89.0887 174.161C89.7979 174.788 90.7027 175.136 91.7688 175.228L91.7704 175.228L93.8414 175.401L93.8546 175.402L93.8679 175.403C94.2442 175.414 94.5001 175.493 94.6634 175.596L94.6634 175.596L94.666 175.597C94.7241 175.633 94.8108 175.716 94.8108 176.012C94.8108 176.266 94.7097 176.463 94.417 176.634C94.088 176.827 93.6322 176.942 93.0136 176.942C91.6189 176.942 90.522 176.506 89.6731 175.656Z" fill="#25B0DC" stroke="black"/>
<path d="M100.376 163.231H99.8763V163.731V179.423V179.923H100.376H102.716H103.216V179.423V172.764C103.216 172.075 103.406 171.63 103.717 171.343L103.717 171.343L103.724 171.336C104.055 171.019 104.48 170.85 105.041 170.85C105.604 170.85 106.023 171.019 106.343 171.333L106.343 171.333L106.351 171.34C106.657 171.627 106.846 172.074 106.846 172.764V179.423V179.923H107.346H109.685H110.185V179.423V171.997V171.989L110.185 171.982C110.144 170.598 109.686 169.48 108.759 168.707L108.759 168.707L108.755 168.703C107.871 167.982 106.88 167.611 105.791 167.611C104.811 167.611 103.947 167.859 103.216 168.36V163.731V163.231H102.716H100.376Z" fill="#25B0DC" stroke="black"/>
<path d="M113.2 163.231H112.7V163.731V165.968V166.468H113.2H115.54H116.04V165.968V163.731V163.231H115.54H113.2ZM113.2 167.751H112.7V168.251V179.421V179.921H113.2H115.54H116.04V179.421V168.251V167.751H115.54H113.2Z" fill="#25B0DC" stroke="black"/>
<path d="M118.822 167.751H118.322V168.251V179.423V179.923H118.822H121.161H121.661V179.423V172.764C121.661 172.075 121.852 171.63 122.163 171.343L122.163 171.343L122.169 171.337C122.501 171.019 122.925 170.85 123.487 170.85C124.049 170.85 124.469 171.019 124.789 171.333L124.789 171.333L124.796 171.34C125.102 171.627 125.291 172.074 125.291 172.764V179.423V179.923H125.791H128.131H128.631V179.423V171.997V171.989L128.631 171.982C128.59 170.598 128.131 169.48 127.205 168.707L127.205 168.707L127.201 168.703C126.317 167.982 125.326 167.611 124.236 167.611C123.257 167.611 122.393 167.859 121.661 168.36V168.251V167.751H121.161H118.822Z" fill="#25B0DC" stroke="black"/>
<path d="M137.628 168.246V168.356C136.885 167.86 136.046 167.606 135.121 167.606V167.606L135.111 167.607C134.303 167.623 133.594 167.771 133.003 168.082L133.003 168.082L133.001 168.083C132.437 168.383 131.981 168.734 131.649 169.149C131.29 169.571 131.039 170.081 130.889 170.666C130.729 171.27 130.661 172.349 130.661 173.84C130.661 175.302 130.729 176.362 130.889 176.96C131.039 177.552 131.291 178.072 131.652 178.502L131.652 178.502L131.655 178.507C131.984 178.89 132.438 179.225 132.992 179.522C133.585 179.869 134.299 180.033 135.111 180.05L135.122 180.05L135.133 180.05C136.074 180.028 136.91 179.79 137.625 179.329V179.39C137.612 180.04 137.408 180.494 137.053 180.817C136.681 181.142 136.168 181.327 135.464 181.328C135.12 181.317 134.785 181.227 134.455 181.052L134.447 181.048L134.439 181.044C134.089 180.874 133.784 180.672 133.522 180.438L133.214 180.164L132.886 180.414L131.068 181.798L130.632 182.129L131.001 182.533C132.204 183.847 133.677 184.534 135.4 184.565L135.4 184.565H135.409C136.89 184.565 138.184 184.127 139.268 183.237C140.398 182.326 140.935 180.93 140.967 179.157L140.967 179.157V179.147V168.246V167.746H140.467H138.128H137.628V168.246ZM134.084 175.542L134.084 175.542L134.082 175.528C134.032 175.255 134 174.706 134 173.847C134 172.972 134.03 172.41 134.082 172.123L134.082 172.123L134.084 172.11C134.124 171.852 134.211 171.677 134.326 171.555L134.341 171.538L134.355 171.52C134.46 171.385 134.639 171.228 134.925 171.054C135.142 170.941 135.435 170.865 135.824 170.85C136.211 170.863 136.501 170.938 136.716 171.051C136.985 171.222 137.162 171.382 137.272 171.522L137.286 171.54L137.302 171.557C137.417 171.679 137.511 171.856 137.566 172.117C137.604 172.421 137.628 172.992 137.628 173.847C137.628 174.69 137.604 175.244 137.566 175.534C137.511 175.796 137.415 175.987 137.29 176.13L137.281 176.141L137.272 176.151C137.169 176.282 136.997 176.426 136.73 176.571L136.711 176.582L136.694 176.593C136.487 176.729 136.207 176.813 135.823 176.813C135.44 176.813 135.159 176.729 134.953 176.593L134.931 176.579L134.907 176.566C134.625 176.421 134.453 176.278 134.353 176.151L134.346 176.142L134.338 176.133C134.214 175.99 134.123 175.8 134.084 175.542Z" fill="#25B0DC" stroke="black"/>
<path d="M149.734 164.35H149.234V164.85V167.751H148.558H148.058V168.251V169.972V170.472H148.558H149.234V176.67C149.234 177.656 149.54 178.48 150.207 179.062C150.834 179.646 151.634 179.921 152.558 179.921H153.781H154.281V179.421V177.313V176.813H153.781H152.905V176.813L152.891 176.813C152.681 176.819 152.627 176.767 152.622 176.762C152.618 176.758 152.567 176.706 152.573 176.499L152.573 176.491V176.484V170.472H153.781H154.281V169.972V168.251V167.751H153.781H152.573V164.85V164.35H152.073H149.734Z" fill="#25B0DC" stroke="black"/>
<path d="M156.192 163.231H155.692V163.731V179.423V179.923H156.192H158.531H159.031V179.423V172.764C159.031 172.075 159.221 171.63 159.532 171.343L159.532 171.343L159.539 171.336C159.871 171.019 160.295 170.85 160.857 170.85C161.419 170.85 161.838 171.019 162.158 171.333L162.158 171.333L162.166 171.34C162.472 171.627 162.661 172.074 162.661 172.764V179.423V179.923H163.161H165.5H166V179.423V171.997V171.989L166 171.982C165.959 170.598 165.501 169.48 164.574 168.707L164.574 168.707L164.57 168.703C163.687 167.982 162.695 167.611 161.606 167.611C160.626 167.611 159.762 167.859 159.031 168.36V163.731V163.231H158.531H156.192Z" fill="#25B0DC" stroke="black"/>
<path d="M171.857 176.368L171.849 176.36L171.841 176.353C171.53 176.084 171.321 175.709 171.241 175.189H177.973H178.473V174.689V172.839H178.473L178.473 172.834C178.458 171.248 177.939 169.95 176.882 169.001L176.881 169C175.863 168.088 174.617 167.63 173.175 167.613L173.175 167.613H173.169C172.557 167.613 171.94 167.719 171.324 167.931C170.678 168.149 170.096 168.502 169.582 168.987L169.582 168.987L169.581 168.988C169.061 169.481 168.65 170.136 168.339 170.932C168.016 171.741 167.865 172.727 167.865 173.871C167.865 175.054 168.036 176.064 168.412 176.869C168.741 177.666 169.182 178.317 169.75 178.793L169.755 178.798L169.761 178.803C170.04 179.024 170.341 179.21 170.661 179.36C170.962 179.53 171.273 179.665 171.591 179.768L171.591 179.768L171.602 179.771C172.23 179.958 172.876 180.05 173.537 180.05C175.29 180.066 176.818 179.401 178.095 178.093L178.477 177.702L178.055 177.357L176.358 175.968L176.014 175.686L175.694 175.995C175.028 176.639 174.299 176.942 173.49 176.942C172.777 176.942 172.249 176.739 171.857 176.368ZM173.172 170.719C173.769 170.719 174.216 170.894 174.559 171.218C174.814 171.467 175 171.828 175.086 172.336H171.265C171.357 171.828 171.541 171.466 171.787 171.215C172.13 170.893 172.579 170.719 173.172 170.719Z" fill="#25B0DC" stroke="black"/>
<path d="M198.264 175.038L197.764 174.977V174.541H195.135H194.821L194.685 174.823C194.368 175.48 193.986 175.94 193.552 176.237C193.122 176.532 192.613 176.686 192.006 176.686C191.491 176.686 191.074 176.58 190.744 176.394L190.728 176.385L190.712 176.377C190.344 176.204 190.063 175.985 189.851 175.726L189.839 175.711L189.826 175.697C189.581 175.441 189.406 175.092 189.314 174.62L189.314 174.62L189.311 174.608C189.205 174.122 189.144 173.129 189.144 171.577C189.144 170.025 189.205 169.022 189.312 168.522L189.312 168.522L189.314 168.513C189.402 168.061 189.578 167.716 189.826 167.456L189.84 167.442L189.853 167.426C190.062 167.166 190.349 166.94 190.722 166.75C191.062 166.582 191.485 166.483 192.008 166.468C192.701 166.483 193.262 166.672 193.718 167.017C194.176 167.403 194.485 167.862 194.657 168.397L194.768 168.744H195.133H197.764H198.375L198.255 168.145C197.969 166.731 197.288 165.534 196.21 164.573L196.208 164.572C195.105 163.596 193.695 163.12 192.018 163.104L192.018 163.104L192.007 163.104C190.647 163.12 189.473 163.432 188.516 164.069C187.595 164.665 186.897 165.363 186.452 166.168C186.165 166.617 185.966 167.176 185.84 167.825L185.84 167.825L185.838 167.832C185.718 168.499 185.663 169.764 185.663 171.579C185.663 173.365 185.716 174.62 185.838 175.303C185.901 175.662 185.984 175.977 186.09 176.242L186.094 176.251L186.098 176.261C186.198 176.482 186.31 176.717 186.434 176.96L186.437 176.967L186.441 176.973C186.886 177.787 187.588 178.482 188.516 179.069C189.473 179.703 190.644 180.022 192 180.052L192 180.052H192.011C193.53 180.052 194.87 179.637 196.006 178.792L196.006 178.792L196.013 178.787C197.034 177.998 197.74 176.905 198.146 175.541H198.264V175.041V175.038Z" fill="#25B0DC" stroke="black"/>
<path d="M198.968 170.948L198.968 170.948L198.966 170.956C198.74 171.662 198.638 172.628 198.638 173.825C198.638 175.019 198.739 175.979 198.97 176.674L198.97 176.674L198.971 176.678C199.203 177.36 199.562 177.956 200.045 178.462C200.42 178.869 200.92 179.215 201.53 179.512C202.189 179.867 203.002 180.034 203.938 180.05L203.946 180.05L203.954 180.05C204.914 180.036 205.738 179.869 206.397 179.518C206.725 179.377 207.011 179.203 207.247 178.992C207.477 178.824 207.674 178.649 207.841 178.469C208.361 177.961 208.728 177.357 208.947 176.668L208.947 176.668L208.949 176.661C209.156 175.974 209.251 175.02 209.251 173.827C209.251 172.633 209.156 171.674 208.95 170.974L208.95 170.974L208.948 170.966C208.732 170.276 208.363 169.69 207.849 169.21C207.491 168.781 207.003 168.42 206.416 168.11L206.416 168.11L206.403 168.104C205.744 167.78 204.919 167.627 203.955 167.611L203.947 167.611L203.938 167.611C203 167.627 202.193 167.781 201.537 168.101L201.537 168.101L201.529 168.105C200.919 168.414 200.419 168.776 200.044 169.202C199.558 169.682 199.199 170.267 198.968 170.948ZM205.419 171.45L205.436 171.475L205.455 171.497C205.63 171.697 205.746 171.929 205.804 172.2C205.868 172.515 205.906 173.055 205.906 173.847C205.906 174.604 205.868 175.122 205.804 175.425L205.804 175.425L205.804 175.428C205.744 175.718 205.626 175.965 205.447 176.179L205.447 176.179L205.44 176.188C205.329 176.328 205.14 176.478 204.845 176.624L204.844 176.624C204.603 176.743 204.305 176.811 203.94 176.811C203.615 176.811 203.323 176.746 203.057 176.623C202.791 176.485 202.588 176.337 202.437 176.18C202.285 175.963 202.17 175.708 202.098 175.41L202.098 175.41L202.097 175.407C202.023 175.112 201.978 174.595 201.978 173.823C201.978 173.046 202.023 172.522 202.097 172.216C202.171 171.925 202.287 171.681 202.444 171.474C202.592 171.292 202.786 171.144 203.041 171.03L203.041 171.029C203.31 170.909 203.607 170.846 203.94 170.846C204.309 170.846 204.609 170.911 204.854 171.026L204.862 171.03L204.87 171.033C205.138 171.147 205.31 171.291 205.419 171.45Z" fill="#25B0DC" stroke="black"/>
<path d="M214.34 168.251V167.751H213.84H211.998H211.498H211.496V168.251H210.998V179.423V179.923H211.498H213.84H214.34V179.423V172.764C214.34 172.086 214.54 171.644 214.874 171.353L214.881 171.347L214.888 171.341C215.228 171.024 215.678 170.85 216.281 170.85C216.882 170.85 217.338 171.023 217.689 171.345L217.689 171.345C218.005 171.633 218.198 172.078 218.198 172.764V179.423V179.923H218.698H221.038H221.538V179.423V172.764C221.538 172.083 221.735 171.64 222.063 171.351L222.063 171.351L222.07 171.345C222.421 171.023 222.877 170.85 223.479 170.85C224.081 170.85 224.531 171.024 224.872 171.341L224.872 171.341L224.875 171.345C225.191 171.633 225.384 172.078 225.384 172.764V179.423V179.923H225.884H228.226H228.726V179.423V171.997H228.726L228.726 171.985C228.693 170.595 228.224 169.474 227.265 168.701L227.265 168.701L227.262 168.698C226.352 167.979 225.333 167.611 224.218 167.611C222.71 167.597 221.431 168.012 220.426 168.883C220.072 168.569 219.694 168.298 219.288 168.072L219.277 168.066L219.266 168.061C218.666 167.764 217.911 167.627 217.037 167.611L217.037 167.611H217.028C216.004 167.611 215.101 167.863 214.34 168.377V168.251Z" fill="#25B0DC" stroke="black"/>
<path d="M230.511 169.972V170.472H231.011H231.696V179.419V179.919H232.196H234.536H235.036V179.419V170.47H236.887H237.387V169.97V168.249V167.749H236.887H235.036V166.768V166.756L235.035 166.744C235.024 166.51 235.083 166.442 235.104 166.423C235.135 166.394 235.242 166.329 235.533 166.339L235.541 166.339H235.549H236.887H237.387V165.839V163.731V163.231H236.887H235.372C234.376 163.231 233.51 163.489 232.808 164.036L232.808 164.036L232.798 164.043C232.031 164.671 231.694 165.618 231.694 166.777V167.751H231.011H230.511V168.251V169.972Z" fill="#25B0DC" stroke="black"/>
<path d="M237.669 170.948L237.669 170.948L237.667 170.956C237.44 171.662 237.339 172.628 237.339 173.825C237.339 175.019 237.44 175.979 237.67 176.674L237.67 176.674L237.672 176.678C237.904 177.36 238.263 177.956 238.746 178.462C239.121 178.869 239.621 179.215 240.23 179.512C240.89 179.867 241.703 180.034 242.639 180.05L242.647 180.05L242.655 180.05C243.614 180.036 244.439 179.869 245.098 179.518C245.426 179.377 245.712 179.203 245.948 178.992C246.178 178.824 246.375 178.649 246.542 178.469C247.062 177.961 247.429 177.357 247.648 176.668L247.648 176.668L247.65 176.661C247.857 175.974 247.952 175.02 247.952 173.827C247.952 172.633 247.857 171.674 247.651 170.974L247.651 170.974L247.648 170.966C247.433 170.276 247.064 169.69 246.55 169.21C246.192 168.781 245.704 168.42 245.116 168.11L245.116 168.11L245.104 168.104C244.444 167.78 243.62 167.627 242.656 167.611L242.647 167.611L242.639 167.611C241.7 167.627 240.894 167.781 240.237 168.101L240.237 168.101L240.23 168.105C239.62 168.414 239.119 168.776 238.745 169.202C238.259 169.682 237.9 170.267 237.669 170.948ZM244.122 171.45L244.139 171.475L244.158 171.497C244.333 171.697 244.449 171.929 244.507 172.2C244.571 172.515 244.61 173.055 244.61 173.847C244.61 174.604 244.571 175.122 244.507 175.425L244.507 175.425L244.507 175.428C244.447 175.718 244.329 175.965 244.151 176.179L244.15 176.179L244.143 176.188C244.032 176.328 243.844 176.478 243.548 176.624L243.547 176.624C243.306 176.743 243.008 176.811 242.643 176.811C242.318 176.811 242.026 176.746 241.76 176.623C241.494 176.485 241.292 176.337 241.14 176.18C240.988 175.963 240.873 175.708 240.801 175.41L240.801 175.41L240.8 175.407C240.726 175.112 240.681 174.595 240.681 173.823C240.681 173.046 240.726 172.522 240.8 172.216C240.874 171.925 240.991 171.681 241.147 171.474C241.295 171.292 241.489 171.144 241.744 171.03L241.744 171.029C242.013 170.909 242.31 170.846 242.643 170.846C243.012 170.846 243.312 170.911 243.557 171.026L243.565 171.03L243.573 171.033C243.842 171.147 244.013 171.291 244.122 171.45Z" fill="#25B0DC" stroke="black"/>
<path d="M250.291 167.751H249.791V168.251V179.421V179.921H250.291H252.63H253.13V179.421V172.69C253.143 171.97 253.357 171.549 253.676 171.305L253.689 171.295L253.701 171.285C254.033 170.995 254.428 170.848 254.913 170.848C255.319 170.848 255.729 170.989 256.153 171.309L256.523 171.589L256.83 171.24L258.538 169.298L258.883 168.905L258.475 168.578C257.688 167.947 256.762 167.628 255.723 167.611L255.723 167.611H255.714C254.731 167.611 253.863 167.86 253.13 168.363V168.251V167.751H252.63H250.291Z" fill="#25B0DC" stroke="black"/>
<path d="M262.512 164.85V164.35H262.012H259.673H259.67H259.17V164.85V167.751H258.495H257.995V168.251V169.972V170.472H258.495H259.17V176.67C259.17 177.656 259.477 178.48 260.144 179.062C260.773 179.645 261.573 179.921 262.497 179.921H263.72H264.22V179.421V177.313V176.813H263.72H262.844V176.813L262.83 176.813C262.62 176.819 262.566 176.767 262.561 176.762C262.557 176.758 262.506 176.706 262.512 176.499L262.512 176.491V176.484V170.472H263.72H264.22V169.972V168.251V167.751H263.72H262.512V164.85Z" fill="#25B0DC" stroke="black"/>
<path d="M270.612 177.181L270.533 177.304V177.45V179.421V179.921H271.033H281.49H281.99V179.421V177.184V176.684H281.49H274.73L281.907 165.795L281.99 165.669V165.519V163.731V163.231H281.49H271.095H270.595V163.731V165.839V166.339H271.095H277.544L270.612 177.181Z" fill="#25B0DC" stroke="black"/>
<path d="M283.398 170.948L283.398 170.948L283.396 170.956C283.169 171.662 283.068 172.628 283.068 173.825C283.068 175.019 283.169 175.979 283.399 176.674L283.399 176.674L283.401 176.678C283.633 177.36 283.992 177.956 284.475 178.462C284.85 178.869 285.35 179.215 285.959 179.512C286.619 179.867 287.432 180.034 288.368 180.05L288.376 180.05L288.384 180.05C289.343 180.036 290.168 179.869 290.827 179.518C291.155 179.377 291.441 179.203 291.677 178.992C291.907 178.824 292.104 178.649 292.271 178.469C292.791 177.961 293.158 177.357 293.377 176.668L293.377 176.668L293.379 176.661C293.586 175.974 293.681 175.02 293.681 173.827C293.681 172.633 293.586 171.674 293.38 170.974L293.38 170.974L293.377 170.966C293.162 170.276 292.793 169.69 292.279 169.21C291.921 168.781 291.433 168.42 290.845 168.11L290.845 168.11L290.833 168.104C290.173 167.78 289.349 167.627 288.385 167.611L288.376 167.611L288.368 167.611C287.429 167.627 286.623 167.781 285.966 168.101L285.966 168.101L285.959 168.105C285.349 168.414 284.848 168.776 284.474 169.202C283.988 169.682 283.629 170.267 283.398 170.948ZM289.849 171.45L289.865 171.475L289.885 171.497C290.06 171.697 290.175 171.929 290.234 172.2C290.298 172.515 290.336 173.055 290.336 173.847C290.336 174.604 290.298 175.122 290.234 175.425L290.234 175.425L290.233 175.428C290.174 175.718 290.055 175.965 289.877 176.179L289.877 176.179L289.87 176.188C289.758 176.328 289.57 176.478 289.274 176.624L289.274 176.624C289.033 176.743 288.735 176.811 288.369 176.811C288.045 176.811 287.752 176.746 287.487 176.623C287.221 176.485 287.018 176.337 286.866 176.18C286.714 175.963 286.6 175.708 286.527 175.41L286.527 175.41L286.527 175.407C286.453 175.112 286.407 174.595 286.407 173.823C286.407 173.046 286.453 172.522 286.527 172.216C286.601 171.925 286.717 171.681 286.874 171.474C287.021 171.292 287.216 171.144 287.471 171.03L287.471 171.029C287.74 170.909 288.037 170.846 288.369 170.846C288.738 170.846 289.039 170.911 289.284 171.026L289.292 171.03L289.3 171.033C289.568 171.147 289.74 171.291 289.849 171.45Z" fill="#25B0DC" stroke="black"/>
<path d="M296.02 167.751H295.52V168.251V179.423V179.923H296.02H298.359H298.859V179.423V172.764C298.859 172.075 299.049 171.63 299.36 171.343L299.36 171.343L299.367 171.337C299.699 171.019 300.123 170.85 300.685 170.85C301.247 170.85 301.666 171.019 301.986 171.333L301.986 171.333L301.994 171.34C302.3 171.627 302.489 172.074 302.489 172.764V179.423V179.923H302.989H305.328H305.828V179.423V171.997V171.989L305.828 171.982C305.787 170.598 305.329 169.48 304.402 168.707L304.402 168.707L304.398 168.703C303.515 167.982 302.523 167.611 301.434 167.611C300.454 167.611 299.59 167.859 298.859 168.36V168.251V167.751H298.359H296.02Z" fill="#25B0DC" stroke="black"/>
<path d="M311.685 176.368L311.677 176.36L311.669 176.353C311.358 176.084 311.149 175.709 311.069 175.189H317.801H318.301V174.689V172.839H318.301L318.301 172.834C318.286 171.248 317.767 169.95 316.71 169.001L316.709 169C315.691 168.088 314.445 167.63 313.003 167.613L313.003 167.613H312.997C312.385 167.613 311.768 167.719 311.152 167.931C310.506 168.149 309.924 168.502 309.41 168.987L309.41 168.987L309.409 168.988C308.889 169.481 308.478 170.136 308.167 170.932C307.844 171.741 307.693 172.727 307.693 173.871C307.693 175.054 307.864 176.064 308.24 176.869C308.569 177.666 309.01 178.317 309.578 178.793L309.583 178.798L309.589 178.803C309.868 179.024 310.169 179.21 310.489 179.36C310.79 179.53 311.101 179.665 311.419 179.768L311.419 179.768L311.43 179.771C312.058 179.958 312.704 180.05 313.365 180.05C315.118 180.066 316.646 179.401 317.923 178.093L318.305 177.702L317.883 177.357L316.186 175.968L315.842 175.686L315.522 175.995C314.856 176.639 314.127 176.942 313.318 176.942C312.605 176.942 312.077 176.739 311.685 176.368ZM313 170.719C313.597 170.719 314.044 170.894 314.387 171.218C314.642 171.467 314.828 171.828 314.914 172.336H311.091C311.184 171.829 311.368 171.466 311.615 171.215C311.958 170.893 312.407 170.719 313 170.719Z" fill="#25B0DC" stroke="black"/>
<path d="M59.1788 65.2176H59.1732H55.8852C55.9065 65.2004 55.9276 65.1833 55.9486 65.1662C56.0084 65.1175 56.0672 65.0693 56.1252 65.0218C56.5645 64.6619 56.9556 64.3416 57.3791 64.1295C60.1843 62.7428 62.996 61.1253 65.5517 59.2334L65.552 59.2332C67.3379 57.9092 68.6148 57.4424 69.7571 57.0807C69.8771 57.0427 69.9965 57.0057 70.1157 56.9687C71.1459 56.6491 72.1568 56.3355 73.3242 55.4723L73.3245 55.472C74.5373 54.5737 75.5983 54.0956 76.6426 53.6251C76.9618 53.4812 77.2795 53.3381 77.5995 53.1838C78.9719 52.5223 80.2792 51.6947 81.6356 49.8223L81.636 49.8218C83.093 47.8054 83.8163 47.2683 84.1792 47.1131C84.3208 47.0526 84.4091 47.0467 84.5426 47.0377C84.5608 47.0364 84.5798 47.0352 84.5999 47.0337C84.6859 47.0273 84.815 47.0153 84.9541 46.9629C85.1009 46.9075 85.2297 46.8191 85.3475 46.6976L59.1788 65.2176ZM59.1788 65.2176C62.0935 64.8618 65.7631 64.2467 68.7843 63.664C70.3061 63.3704 71.6584 63.0861 72.6635 62.8482C73.1668 62.7291 73.5774 62.623 73.8765 62.5344C74.0265 62.4899 74.142 62.4518 74.2243 62.4205C74.2848 62.3975 74.3103 62.3843 74.3146 62.3826C79.0385 58.7781 82.5231 56.314 85.0836 54.7038C87.6266 53.1046 89.3136 52.3107 90.4221 52.1129C90.9824 52.0128 91.4826 52.0489 91.8716 52.3061C92.2704 52.5699 92.4376 52.9889 92.4996 53.392C92.561 53.7914 92.5312 54.2439 92.4746 54.684C92.4283 55.0445 92.3593 55.4275 92.2929 55.7967C92.2776 55.8812 92.2626 55.965 92.2479 56.0476C92.1674 56.5013 92.099 56.925 92.075 57.3006C92.0506 57.6838 92.077 57.963 92.1475 58.149C92.2066 58.3049 92.2905 58.3882 92.4454 58.4327C92.6379 58.488 92.9816 58.4924 93.5625 58.329C94.7205 58.0033 96.5708 57.0857 99.4592 55.2359C102.336 53.3937 106.205 50.6514 111.39 46.7123L111.39 46.7123C115.808 43.3563 118.765 41.1631 120.917 39.9548C123.07 38.7458 124.566 38.4366 125.979 39.1032C126.652 39.4211 127.265 39.943 127.898 40.5927C128.395 41.1026 128.929 41.7172 129.529 42.4075C129.692 42.5952 129.86 42.7886 130.033 42.987C131.663 44.8522 133.854 47.2549 137.3 49.9925L137.301 49.9928C138.391 50.8604 139.44 50.9128 140.366 50.4587C141.332 49.9851 142.233 48.923 142.862 47.4287C144.115 44.4501 144.186 39.98 141.744 36.0008C141.671 35.8818 141.667 35.7669 141.669 35.7105C141.672 35.6494 141.685 35.6008 141.693 35.5735C141.71 35.5186 141.733 35.4735 141.747 35.4479C141.776 35.3922 141.815 35.3333 141.853 35.2791C141.932 35.1665 142.046 35.0182 142.185 34.8443C142.465 34.4939 142.87 34.0108 143.357 33.4427C144.331 32.305 145.644 30.8114 146.964 29.3242C148.285 27.8366 149.615 26.3536 150.625 25.2364C151.13 24.6778 151.555 24.2101 151.859 23.8787C152.011 23.7132 152.133 23.5806 152.221 23.4874C152.264 23.441 152.301 23.4026 152.329 23.374C152.343 23.3601 152.357 23.3459 152.37 23.3335C152.376 23.3274 152.385 23.3191 152.395 23.3102C152.396 23.3088 152.405 23.3008 152.419 23.2899C152.479 23.239 152.549 23.1916 152.612 23.166C152.765 23.1537 152.992 23.2274 153.061 23.2795C153.094 23.3113 153.139 23.3667 153.153 23.3887C153.162 23.4032 153.175 23.4281 153.181 23.4387C153.187 23.4527 153.193 23.4651 153.196 23.4742C153.198 23.4788 153.199 23.4824 153.2 23.4851C153.216 23.527 153.231 23.587 153.24 23.6238L153.24 23.6263C153.266 23.7265 153.305 23.8956 153.357 24.1145C153.37 24.1704 153.383 24.2299 153.398 24.2927C153.499 24.7252 153.637 25.3148 153.8 25.9912C154.175 27.5432 154.681 29.5382 155.183 31.1195C155.435 31.9136 155.679 32.5828 155.898 33.0357C155.914 33.0693 155.93 33.1011 155.945 33.1311C155.967 33.0157 155.988 32.8777 156.008 32.7145C156.098 31.9584 156.141 30.7678 156.113 29.0205C156.113 28.9864 156.116 28.9598 156.117 28.9506C156.119 28.9374 156.12 28.9266 156.122 28.92C156.124 28.9066 156.127 28.8952 156.128 28.8883C156.132 28.8736 156.135 28.8586 156.139 28.8457C156.146 28.8187 156.156 28.7842 156.168 28.7441C156.192 28.6632 156.226 28.5501 156.27 28.4101C156.358 28.1297 156.486 27.7364 156.645 27.2678C156.963 26.3311 157.409 25.0888 157.916 23.844C158.421 22.6032 158.995 21.3422 159.573 20.377C159.861 19.8959 160.162 19.4684 160.469 19.1512C160.76 18.8494 161.133 18.568 161.569 18.542L161.569 18.542C162.065 18.5124 162.351 18.437 162.514 18.3548C162.652 18.2848 162.699 18.2131 162.727 18.1291C162.766 18.0139 162.777 17.8435 162.76 17.5626C162.753 17.4491 162.742 17.33 162.73 17.197L162.723 17.1154C162.709 16.9523 162.694 16.7734 162.685 16.5846C162.65 15.8184 162.715 14.8803 163.297 13.8527C163.873 12.8345 164.928 11.7777 166.776 10.7056L166.777 10.7053C167.117 10.5084 167.541 10.0727 168.008 9.44884C168.465 8.83846 168.927 8.09704 169.355 7.34567C170.211 5.84267 170.905 4.33944 171.109 3.85784L171.461 3.02843L171.948 3.72219C171.968 3.73958 171.996 3.76353 172.031 3.79431C172.114 3.86565 172.235 3.96845 172.389 4.09936C172.646 4.3168 172.992 4.60941 173.407 4.95947L173.667 5.17977C174.729 6.07604 176.155 7.28179 177.631 8.54303C179.107 9.80399 180.634 11.1219 181.898 12.2422C183.151 13.3536 184.17 14.2938 184.61 14.7881M59.1788 65.2176L184.236 15.1202M184.61 14.7881L184.236 15.1202M184.61 14.7881C184.609 14.7879 184.609 14.7877 184.609 14.7875L184.236 15.1202M184.61 14.7881C184.785 14.9843 185.08 15.207 185.503 15.4642C185.92 15.7181 186.427 15.9855 187 16.2805C187.137 16.3505 187.276 16.4219 187.419 16.4947C188.468 17.0311 189.678 17.65 190.836 18.3948C193.444 20.0734 195.939 22.4922 195.776 26.2902M184.236 15.1202C184.741 15.687 185.856 16.2572 187.192 16.9405C190.63 18.6983 195.53 21.2044 195.274 26.3252M195.776 26.2902C195.772 26.2769 195.769 26.2683 195.768 26.2636C195.771 26.2764 195.775 26.308 195.773 26.3491M195.776 26.2902C195.778 26.2976 195.781 26.3063 195.785 26.3167C195.805 26.3779 195.838 26.466 195.885 26.5833C195.971 26.8014 196.094 27.0938 196.243 27.4512L196.275 27.5281C196.602 28.3084 197.041 29.3589 197.473 30.5174C197.905 31.6749 198.334 32.9482 198.641 34.1766C198.946 35.3977 199.14 36.6076 199.079 37.6274M195.776 26.2902C195.775 26.3098 195.774 26.3294 195.773 26.3491M195.773 26.3491L195.274 26.3252M195.773 26.3491C195.773 26.3495 195.773 26.3498 195.773 26.3502L195.274 26.3252M195.274 26.3252L199.079 37.6274M171.569 4.05297L172.03 4.2481C172.012 4.29054 171.99 4.33999 171.966 4.39587C171.719 4.18578 171.577 4.06412 171.569 4.05297ZM171.569 4.05297L171.16 4.34042C171.179 4.3669 171.196 4.38587 171.201 4.39105C171.208 4.39921 171.215 4.40578 171.219 4.4098C171.227 4.41795 171.235 4.4251 171.24 4.42995C171.251 4.4401 171.263 4.45136 171.276 4.46244C171.297 4.48095 171.324 4.50459 171.356 4.53261C171.45 4.32868 171.522 4.16491 171.569 4.05297ZM152.875 24.2518C152.887 24.3008 152.899 24.3525 152.911 24.4066C153.706 27.8106 156.801 41.063 156.613 29.0127L152.875 24.2518ZM152.875 24.2518C152.903 24.2224 152.927 24.1958 152.95 24.172C152.989 24.1307 153.018 24.0996 153.039 24.0782L153.271 23.9334L153.225 23.6112C153.222 23.5845 153.229 23.6213 153.227 23.6682C153.227 23.6744 153.226 23.6862 153.225 23.698C153.225 23.7063 153.224 23.7146 153.223 23.721C153.219 23.7454 153.202 23.8111 153.187 23.8511C153.159 23.9023 153.069 23.996 152.971 24.0666C152.93 24.0955 152.888 24.1204 152.848 24.137M152.875 24.2518L152.848 24.137M152.848 24.137C152.799 23.9262 152.763 23.7767 152.744 23.7035C152.742 23.6946 152.74 23.6869 152.738 23.6803C152.728 23.6434 152.725 23.6422 152.73 23.6814C152.715 23.6907 152.599 23.814 152.4 24.0288M152.848 24.137L152.4 24.0288M152.4 24.0288C152.399 24.0277 152.397 24.0266 152.396 24.0255C152.363 23.994 152.319 23.9389 152.305 23.9175C152.296 23.9036 152.283 23.8794 152.278 23.8696C152.269 23.8505 152.264 23.8353 152.262 23.8301C152.259 23.8228 152.257 23.8182 152.257 23.8182C152.257 23.8183 152.261 23.8318 152.27 23.869C152.284 23.9238 152.303 24.0039 152.328 24.1074M152.4 24.0288L152.328 24.1074M152.328 24.1074C150.377 26.2264 142.038 35.5272 142.17 35.7392L152.328 24.1074ZM74.6055 62.7896C74.0466 63.2211 65.5491 64.9109 59.6732 65.6598L74.6055 62.7896ZM74.6055 62.7896C93.0608 48.7062 92.4403 52.1543 91.8017 55.7029M74.6055 62.7896L91.8017 55.7029M250.733 26.5211C250.639 26.5032 250.444 26.455 250.159 26.3661L249.657 27.1972C252.91 30.448 256.854 33.4578 261.482 36.2318C254.968 33.6973 249.191 29.7018 244.151 24.2368L244.071 24.1507L243.962 24.1089C239.981 22.5841 234.952 20.5813 230.713 18.8041C228.593 17.9154 226.675 17.0844 225.185 16.3987C224.439 16.0557 223.805 15.7506 223.308 15.494C222.801 15.2327 222.465 15.0352 222.296 14.9073L222.295 14.9067C220.61 13.6378 218.512 12.9251 216.962 12.8879C216.208 12.8698 215.455 13.0091 214.991 13.4696C214.745 13.7142 214.601 14.031 214.582 14.3972C214.565 14.7509 214.665 15.1235 214.851 15.5042M250.733 26.5211L216.655 28.7306L216.324 29.1055C214.87 27.8225 214.189 26.6556 214.014 25.4951C213.841 24.3507 214.178 23.3014 214.552 22.3145C214.614 22.15 214.677 21.9872 214.74 21.8252C215.065 20.9866 215.382 20.1682 215.515 19.2489C215.668 18.1798 215.568 16.9707 214.851 15.5042M250.733 26.5211C255.42 27.2353 257.27 28.0024 258.648 29.0079C259.079 29.3224 259.441 29.6373 259.817 29.9648C260.641 30.682 261.534 31.459 263.373 32.4221C264.373 32.5774 265.562 33.2273 266.868 34.0679C267.672 34.585 268.563 35.2043 269.522 35.8704C270.184 36.3303 270.878 36.8125 271.598 37.2988C275.157 39.7042 279.487 42.3156 284.469 43.4857L284.469 43.4858C285.914 43.8265 287.334 44.6729 288.724 45.7681C290.116 46.8659 291.513 48.2421 292.905 49.6803C293.373 50.1636 293.84 50.6531 294.306 51.1422C296.642 53.5908 298.966 56.0272 301.328 57.5922C303.852 59.2615 305.402 60.3516 306.434 61.0778C306.526 61.142 306.613 61.2035 306.697 61.2622C307.742 61.9962 308.154 62.27 308.583 62.4345C308.917 62.5628 309.257 62.6252 309.917 62.7465C310.134 62.7863 310.386 62.8326 310.684 62.8896C311.852 63.1134 313.644 63.4928 316.653 64.3078L316.653 64.308C317.808 64.6226 318.793 64.9251 319.665 65.2198H321.151C318.923 64.1791 316.99 62.8359 315.214 61.5544C315.01 61.4073 314.809 61.2613 314.609 61.1169C312.428 59.5365 310.498 58.1385 308.463 57.4839C300.598 54.9673 295.989 49.9518 291.204 44.7438C290.344 43.8089 289.48 42.8678 288.589 41.9338L288.589 41.9337C285.565 38.7593 281.898 37.3327 278.521 36.2438C278.06 36.0953 277.602 35.9522 277.15 35.8112C275.963 35.4405 274.824 35.0847 273.809 34.683C272.403 34.1266 271.157 33.4546 270.271 32.4591L270.271 32.4589C269.772 31.8976 268.607 31.0632 267.015 30.0895C265.443 29.1284 263.512 28.0648 261.534 27.0428C257.564 24.9917 253.465 23.138 251.733 22.6115L251.633 22.5811L251.578 22.5338C251.559 22.5256 251.533 22.5156 251.491 22.4996C251.418 22.4725 251.269 22.4196 251.142 22.3392C250.937 22.2106 250.789 22.1488 250.649 22.0969C250.623 22.0871 250.595 22.077 250.565 22.0663C250.437 22.0208 250.278 21.964 250.107 21.876L250.101 21.873C249.939 21.7871 249.829 21.757 249.75 21.7468C249.672 21.7367 249.596 21.7422 249.491 21.7632C249.45 21.7714 249.401 21.7835 249.344 21.7975C249.127 21.8511 248.799 21.9321 248.395 21.9246C248.202 21.9229 247.989 21.8432 247.845 21.7835C247.673 21.7124 247.486 21.6198 247.315 21.5279C247.144 21.4357 246.979 21.3392 246.852 21.2573C246.79 21.2169 246.729 21.1758 246.68 21.1377C246.665 21.1269 246.649 21.1142 246.633 21.1001C246.624 21.0963 246.614 21.0922 246.604 21.0878C246.551 21.0652 246.489 21.0397 246.423 21.0121C246.359 20.9855 246.292 20.957 246.235 20.9319C246.207 20.9194 246.178 20.906 246.152 20.8929C246.134 20.8841 246.088 20.8613 246.044 20.8301L246.036 20.8241L246.028 20.8177C245.769 20.6167 245.286 20.282 244.786 19.9913C244.537 19.8462 244.291 19.7168 244.073 19.6212C243.847 19.5219 243.686 19.4758 243.596 19.4668C243.406 19.4496 243.212 19.3888 243.042 19.3249C242.867 19.2586 242.687 19.1761 242.523 19.0971C242.44 19.0573 242.359 19.0172 242.282 18.9797C242.205 18.9417 242.134 18.9067 242.068 18.875C241.927 18.8074 241.84 18.7709 241.794 18.7575L241.79 18.7562C241.325 18.6143 240.98 18.3874 240.692 18.1979C240.635 18.1607 240.581 18.125 240.529 18.0916C240.208 17.8879 239.863 17.7039 239.274 17.6106C239.273 17.6106 239.273 17.6106 239.273 17.6106L239.351 17.1167L250.733 26.5211ZM214.851 15.5042C214.851 15.504 214.851 15.5039 214.851 15.5037L215.3 15.2842L214.851 15.5042ZM199.079 37.6274C199.079 37.6276 199.079 37.6277 199.079 37.6279L198.579 37.598L199.079 37.6274ZM185.046 9.64148C185.044 9.64145 185.059 9.64187 185.095 9.65109C185.129 9.65999 185.174 9.67483 185.231 9.69757C185.344 9.74337 185.482 9.81309 185.642 9.90518C185.96 10.0891 186.329 10.3426 186.692 10.6147C187.053 10.8857 187.399 11.1684 187.67 11.4063C187.806 11.5253 187.921 11.6308 188.008 11.7163C188.051 11.759 188.086 11.7948 188.112 11.8233C188.125 11.8374 188.135 11.8487 188.142 11.8573C188.149 11.8662 188.152 11.87 188.152 11.8694L188.153 11.8721C188.886 12.8891 190.018 13.4839 190.989 13.9717C191.057 14.0063 191.125 14.0402 191.192 14.0737C191.614 14.2849 192 14.478 192.343 14.6877C192.738 14.9297 193.031 15.1691 193.221 15.4333L193.367 15.6377L193.618 15.642C193.945 15.6476 194.189 15.6358 194.381 15.5914C194.61 15.5383 194.752 15.4415 194.867 15.3308C194.899 15.301 194.921 15.2788 194.938 15.2607C194.976 15.2225 194.996 15.2025 195.048 15.1668C195.118 15.1182 195.253 15.0434 195.526 14.9526C195.748 14.8811 195.907 14.8001 196.035 14.6973C196.097 14.6484 196.142 14.6016 196.17 14.572C196.202 14.5388 196.207 14.5335 196.214 14.5274L196.214 14.5272C196.216 14.5255 196.22 14.5222 196.232 14.5161C196.246 14.5085 196.277 14.4948 196.333 14.4775C196.451 14.4416 196.651 14.399 197.003 14.3545L197.004 14.3543C197.318 14.3137 197.537 14.1894 197.708 14.041C197.78 13.9779 197.842 13.9112 197.887 13.8635L197.893 13.8573C197.943 13.8037 197.975 13.7703 198.008 13.7413C198.059 13.6973 198.114 13.6612 198.227 13.6418C198.357 13.6195 198.582 13.6175 198.969 13.6967L198.972 13.6972C199.025 13.7077 199.069 13.7154 199.104 13.7212C199.15 13.764 199.211 13.8189 199.299 13.8908L199.301 13.8926C199.493 14.0476 199.73 14.0731 199.881 14.0769C200.053 14.0813 200.243 14.0587 200.43 14.0244C200.808 13.9553 201.25 13.8242 201.675 13.677C202.102 13.5287 202.528 13.3583 202.874 13.2037C203.198 13.0589 203.511 12.9033 203.668 12.7807L203.36 12.3867L203.668 12.7807C203.937 12.5702 204.179 12.4658 204.516 12.3305L204.569 12.309C204.901 12.1759 205.304 12.0141 205.816 11.704C206.752 11.1415 208.562 10.1948 210.303 9.4788C211.174 9.12036 212.012 8.82671 212.704 8.66558C213.051 8.58495 213.347 8.54101 213.585 8.53446C213.83 8.52767 213.967 8.56259 214.029 8.59502L214.259 8.15097L214.028 8.59438C215.107 9.15656 216.313 9.59108 217.485 10.0136C217.962 10.1856 218.434 10.3556 218.889 10.5314C220.499 11.1527 221.96 11.8621 223.061 13.0105L223.134 13.0862L223.23 13.1263C223.398 13.1959 223.552 13.2581 223.68 13.3061C223.792 13.3482 223.915 13.3913 224.014 13.4125C224.354 13.4958 227.296 14.2568 230.169 15.0143C231.616 15.3958 233.042 15.7756 234.104 16.0663C234.636 16.2119 235.075 16.3344 235.379 16.4234C235.531 16.4682 235.645 16.5031 235.719 16.5274C235.734 16.5326 235.746 16.5368 235.756 16.5401L156.63 5.39127M185.046 9.64148C184.826 9.63813 184.604 9.56494 184.409 9.48086C184.206 9.39264 183.987 9.27208 183.765 9.13607C183.321 8.86466 182.814 8.50247 182.309 8.13987L182.257 8.10263C181.761 7.74717 181.264 7.39032 180.795 7.0907C180.304 6.77613 179.882 6.55024 179.558 6.45099L179.526 6.44094L179.495 6.4265C179.477 6.41841 179.464 6.4109 179.461 6.40937L179.461 6.40922L179.45 6.40306L179.441 6.39748L179.431 6.39142L179.412 6.37895L179.35 6.33884L179.137 6.20025C178.961 6.08596 178.728 5.93348 178.492 5.77882C178.106 5.52554 177.679 5.24487 177.517 5.13339L177.502 5.12683L177.474 5.11497C177.437 5.09923 177.39 5.07898 177.336 5.05541C177.197 4.99529 177.008 4.91227 176.806 4.81931C176.606 4.72673 176.389 4.62224 176.196 4.51913C176.013 4.42139 175.817 4.30689 175.681 4.19218L175.68 4.19147C175.605 4.12743 175.446 4.02827 175.196 3.90442C174.955 3.78499 174.658 3.65617 174.328 3.52732C173.667 3.26943 172.898 3.02017 172.23 2.85183L172.169 2.83668L172.115 2.80727C171.521 2.48756 170.962 2.23648 170.456 2.12485L170.453 2.12417C169.534 1.91544 168.931 1.57983 168.491 1.33468C168.396 1.28212 168.309 1.23372 168.228 1.19162C167.998 1.07212 167.834 1.01061 167.667 0.994276C167.504 0.978444 167.293 1.00122 166.975 1.13087L166.974 1.13157C166.217 1.43687 165.69 1.63369 165.279 1.78701L165.237 1.8026C164.845 1.94838 164.571 2.0507 164.29 2.17317C163.715 2.42473 163.105 2.76666 161.49 3.74577L161.341 3.83657L161.171 3.8147C161.171 3.81502 161.148 3.81397 161.091 3.81775C161.03 3.82187 160.949 3.83007 160.854 3.84227C160.663 3.8666 160.43 3.90459 160.198 3.94877C159.966 3.99306 159.744 4.04205 159.574 4.08735C159.488 4.11022 159.423 4.13008 159.38 4.14566C159.378 4.14638 159.376 4.14708 159.375 4.14775C159.208 4.29884 159.05 4.4552 158.887 4.61563C158.865 4.63694 158.844 4.65832 158.822 4.67977C158.627 4.87149 158.424 5.06994 158.212 5.24509C157.788 5.5956 157.275 5.90302 156.621 5.8912M185.046 9.64148C185.047 9.6415 185.049 9.64153 185.05 9.64155L185.056 9.14158M185.046 9.64148L185.056 9.14158M156.621 5.8912C156.621 5.89119 156.621 5.89119 156.621 5.89119L156.63 5.39127M156.621 5.8912C156.621 5.8912 156.621 5.8912 156.621 5.8912L156.63 5.39127M156.621 5.8912C156.201 5.88428 155.954 5.90165 155.786 5.93485C155.634 5.96468 155.537 6.00875 155.419 6.08305C155.357 6.12154 155.287 6.17159 155.201 6.23194C154.924 6.42857 154.492 6.7346 153.722 7.10674M156.63 5.39127C155.548 5.37342 155.362 5.50481 154.89 5.83911C154.61 6.03704 154.23 6.30609 153.503 6.65741M153.722 7.10674C153.723 7.10648 153.724 7.10622 153.724 7.10596L153.503 6.65741M153.722 7.10674C153.722 7.107 153.721 7.10727 153.721 7.10753L153.503 6.65741M153.722 7.10674L153.503 6.65741M185.056 9.14158C185.835 9.15689 188.272 11.1753 188.559 11.5798L185.056 9.14158ZM140.783 14.1594L140.783 14.1597C140.357 14.5642 140.086 14.8148 139.908 14.9658C139.82 15.0402 139.742 15.1021 139.672 15.1479C139.615 15.1846 139.494 15.259 139.335 15.2672C139.267 15.2707 139.206 15.2615 139.155 15.2469C139.143 15.2527 139.13 15.2595 139.115 15.2673C139.017 15.3189 138.919 15.371 138.821 15.4237C137.829 15.9516 136.753 16.5246 135.667 16.9215L135.664 16.9228C134.565 17.3153 134.07 17.6468 133.721 17.9353C133.636 18.006 133.55 18.0835 133.46 18.1653C133.196 18.404 132.892 18.6788 132.44 18.926C131.94 19.2008 131.624 19.4235 131.313 19.643C131.185 19.7336 131.057 19.8236 130.918 19.9165C130.438 20.2358 129.905 20.5232 128.929 20.8373C128.736 20.9012 128.386 21.0852 127.91 21.3654C127.568 21.5663 127.189 21.8 126.793 22.044C126.65 22.1317 126.506 22.2208 126.36 22.3102C125.814 22.6446 125.255 22.981 124.761 23.246C124.288 23.5001 123.808 23.726 123.442 23.7874L123.438 23.7883C123.39 23.7957 123.274 23.8341 123.074 23.9387C122.885 24.0374 122.656 24.1754 122.395 24.3459C121.873 24.6869 121.253 25.1356 120.606 25.6074C120.545 25.652 120.483 25.6968 120.422 25.7418C119.837 26.1683 119.239 26.6048 118.694 26.9762C118.111 27.3746 117.55 27.7256 117.115 27.9037C117.108 27.9078 117.087 27.9197 117.048 27.9437C117.003 27.972 116.949 28.0079 116.893 28.0462C116.775 28.1267 116.676 28.2007 116.644 28.2271L116.528 28.3251L116.377 28.3419C115.373 28.4538 114.703 28.8226 114.03 29.2908C113.884 29.392 113.735 29.5007 113.58 29.6135C113.028 30.0162 112.404 30.4711 111.61 30.8234L111.609 30.8237C111.3 30.9601 111.102 31.1052 110.866 31.2773C110.813 31.3162 110.758 31.3565 110.699 31.3984C110.373 31.6303 109.999 31.8596 109.381 32.0184L109.377 32.0193C108.718 32.1835 107.854 32.7435 107.013 33.3518C106.826 33.4874 106.625 33.6367 106.432 33.7793C106.233 33.9266 106.044 34.0669 105.89 34.1777C105.725 34.2956 105.569 34.4034 105.43 34.4898C105.3 34.5704 105.152 34.6532 105.009 34.6981C104.739 34.7851 104.404 34.954 104.012 35.1784C103.776 35.3133 103.54 35.456 103.297 35.6036C103.13 35.7044 102.96 35.8075 102.783 35.9121C102.362 36.1609 101.924 36.4059 101.508 36.582C101.149 36.7335 100.759 36.855 100.383 36.8559C100.371 36.8618 100.358 36.8683 100.344 36.8752C100.247 36.9247 100.108 36.9966 99.9393 37.084C99.603 37.2587 99.1549 37.4938 98.7042 37.7334C98.253 37.9731 97.8015 38.2161 97.4577 38.4069C97.2852 38.5026 97.1433 38.5832 97.0431 38.6428C97.0018 38.6674 96.9709 38.6865 96.9493 38.7004C96.9276 38.7247 96.9067 38.7459 96.8881 38.7639L96.8925 38.8778L96.6764 39.0347C96.3191 39.2942 96.0483 39.4207 95.7883 39.4573C95.6696 39.474 95.5696 39.4688 95.5124 39.4659L95.5034 39.4654C95.4444 39.4625 95.438 39.4637 95.4326 39.4647L95.4325 39.4647C95.4282 39.4654 95.3393 39.4797 95.0714 39.7043C94.8043 39.9283 94.4051 40.321 93.7816 41.0068L93.7813 41.007C93.3314 41.5012 92.7215 41.9354 92.051 42.3449C91.5025 42.6798 90.8878 43.013 90.2573 43.3549C90.1158 43.4316 89.9734 43.5088 89.8308 43.5865C88.2554 44.4453 86.6142 45.3925 85.3478 46.6974L140.783 14.1594ZM140.783 14.1594C140.81 14.134 140.884 14.0794 141.016 14.0001C141.139 13.9264 141.283 13.8477 141.426 13.7723C141.523 13.7212 141.615 13.6744 141.698 13.6319C141.738 13.611 141.777 13.5911 141.814 13.5722C141.866 13.545 141.917 13.5187 141.956 13.4966C141.975 13.4859 141.999 13.4726 142.021 13.4585C142.032 13.4516 142.048 13.4408 142.066 13.4273L142.066 13.4269C142.076 13.4192 142.112 13.3921 142.149 13.3492L140.783 14.1594ZM91.8017 55.7029C91.1322 59.4231 90.4429 63.2538 111.692 47.1104L91.8017 55.7029ZM212.934 55.5298C212.935 55.5314 212.937 55.533 212.938 55.5345C212.954 55.5044 213.019 55.4017 213.169 55.3602C213.313 55.3202 213.419 55.3698 213.452 55.3885C213.452 55.3867 213.452 55.3849 213.452 55.3831C213.429 55.3576 213.368 55.2868 213.269 55.129C213.174 54.9783 213.062 54.7793 212.932 54.5254C212.934 54.5607 212.936 54.5956 212.938 54.6299C212.955 54.9081 212.961 55.1376 212.955 55.3121C212.95 55.4363 212.939 55.5025 212.934 55.5298ZM153.062 24.055C153.07 24.0468 153.069 24.0492 153.06 24.0571C153.061 24.0561 153.062 24.0554 153.062 24.055ZM231.615 65.3215C231.62 65.3364 231.624 65.351 231.628 65.3654L231.644 65.3478C231.634 65.3392 231.625 65.3304 231.615 65.3215ZM225.211 43.6463C225.077 43.5686 224.917 43.4619 224.733 43.3308C224.829 43.531 224.9 43.6936 224.949 43.8234C225.017 44.0038 225.022 44.072 225.024 44.0719C225.025 44.0719 225.025 44.0678 225.026 44.0603C225.031 44.0216 225.058 43.9052 225.179 43.8183C225.292 43.738 225.397 43.7471 225.414 43.7491C225.418 43.7496 225.418 43.7494 225.411 43.7467C225.393 43.7398 225.331 43.7161 225.211 43.6463ZM220.783 36.6977C220.783 36.6977 220.801 36.7055 220.845 36.7393C220.855 36.7276 220.865 36.7172 220.873 36.708C220.893 36.6879 220.902 36.6814 220.902 36.6814C220.902 36.6813 220.897 36.6844 220.889 36.6882C220.825 36.7156 220.783 36.6977 220.783 36.6977ZM220.1 32.3444C220.092 32.3463 220.083 32.3481 220.074 32.3501C220.255 32.5185 220.338 32.6131 220.37 32.6611C220.372 32.6631 220.373 32.6648 220.374 32.6661C220.369 32.6572 220.359 32.6333 220.353 32.5968C220.34 32.5123 220.358 32.4087 220.421 32.3226C220.459 32.2699 220.498 32.2461 220.508 32.241C220.5 32.2445 220.475 32.2547 220.42 32.27C220.336 32.2934 220.235 32.3153 220.1 32.3444ZM221.994 15.3061C223.648 16.5569 235.812 21.5231 243.783 24.5758L221.994 15.3061ZM156.203 33.5248C156.203 33.5254 156.199 33.5226 156.191 33.5147C156.199 33.5202 156.203 33.5242 156.203 33.5248ZM149.899 9.22474C149.899 9.22457 149.899 9.2244 149.9 9.22423L149.717 8.75889L149.897 9.22535C149.898 9.22514 149.898 9.22494 149.899 9.22474ZM146.324 11.1519C146.372 11.1342 146.419 11.1125 146.466 11.0859L146.221 10.6504L146.173 11.1482C146.223 11.153 146.273 11.154 146.324 11.1519ZM199.213 13.7382C199.213 13.7382 199.209 13.7376 199.202 13.7361C199.21 13.7374 199.214 13.7381 199.213 13.7382ZM199.027 13.647C199.025 13.6448 199.025 13.6444 199.027 13.6466L199.027 13.647ZM138.969 15.1544C138.96 15.1488 138.959 15.1471 138.966 15.1524L138.968 15.1543L138.969 15.1544Z" fill="#25B0DC" stroke="black"/>
<path d="M34.6139 142.863C133.983 141.682 233.409 141.682 332.782 142.863C233.443 144.923 133.963 144.923 34.6139 142.863Z" fill="#053541" stroke="black"/>
<path d="M344.543 180.758L345.188 180.017C340.465 174.014 334.941 168.725 328.621 164.163L327.905 164.835C332.052 171.402 337.606 176.717 344.543 180.758Z" fill="#25B0DC" stroke="black"/>
<path d="M326.199 180.017L326.844 180.758C333.778 176.715 339.335 171.4 343.481 164.835L342.765 164.163C336.447 168.727 330.921 174.014 326.199 180.017Z" fill="#25B0DC" stroke="black"/>
<path d="M53.644 180.758L54.2886 180.017C49.566 174.014 44.0424 168.725 37.7217 164.163L37.0063 164.835C41.1526 171.402 46.7066 176.717 53.644 180.758Z" fill="#25B0DC" stroke="black"/>
<path d="M35.2997 180.017L35.9445 180.758C42.8792 176.715 48.4356 171.4 52.5819 164.835L51.8664 164.163C45.5483 168.727 40.0223 174.014 35.2997 180.017Z" fill="#25B0DC" stroke="black"/>
<defs>
<filter id="filter0_d_151_48" x="289.944" y="72.7831" width="38.8221" height="61.3265" filterUnits="userSpaceOnUse" color-interpolation-filters="sRGB">
<feFlood flood-opacity="0" result="BackgroundImageFix"/>
<feColorMatrix in="SourceAlpha" type="matrix" values="0 0 0 0 0 0 0 0 0 0 0 0 0 0 0 0 0 0 127 0" result="hardAlpha"/>
<feOffset dy="4"/>
<feGaussianBlur stdDeviation="2"/>
<feComposite in2="hardAlpha" operator="out"/>
<feColorMatrix type="matrix" values="0 0 0 0 0 0 0 0 0 0 0 0 0 0 0 0 0 0 0.25 0"/>
<feBlend mode="normal" in2="BackgroundImageFix" result="effect1_dropShadow_151_48"/>
<feBlend mode="normal" in="SourceGraphic" in2="effect1_dropShadow_151_48" result="shape"/>
</filter>
</defs>
</svg>
